<svg width="30px" viewBox="0 0 25 25" xmlns="http://www.w3.org/2000/svg" style="--darkreader-inline-fill:#000000">
    <g id="SVGRepo_iconCarrier">
        <g id="birthday">
            <path class="cls-1" d="M22.5 3H21V2a1 1 0 0 0-1-1h-1a1 1 0 0 0-1 1v1h-4V2a1 1 0 0 0-1-1h-1a1 1 0 0 0-1 1v1H7V2a1 1 0 0 0-1-1H5a1 1 0 0 0-1 1v1H2.5A1.5 1.5 0 0 0 1 4.5v18A1.5 1.5 0 0 0 2.5 24h20a1.5 1.5 0 0 0 1.5-1.5v-18A1.5 1.5 0 0 0 22.5 3ZM19 2h1v3h-1Zm-7 0h1v3h-1ZM5 2h1v3H5ZM2.5 4H4v1a1 1 0 0 0 1 1h1a1 1 0 0 0 1-1V4h4v1a1 1 0 0 0 1 1h1a1 1 0 0 0 1-1V4h4v1a1 1 0 0 0 1 1h1a1 1 0 0 0 1-1V4h1.5a.5.5 0 0 1 .5.5V8H2V4.5a.5.5 0 0 1 .5-.5Zm20 19h-20a.5.5 0 0 1-.5-.5V9h21v13.5a.5.5 0 0 1-.5.5Z"/>
            <path class="cls-1" d="M17.5 15H16v-1.09a1.51 1.51 0 0 0 1-1.41c0-.58-.47-2.5-1.5-2.5S14 11.92 14 12.5a1.51 1.51 0 0 0 1 1.41V15h-2v-1.09a1.51 1.51 0 0 0 1-1.41c0-.58-.47-2.5-1.5-2.5S11 11.92 11 12.5a1.51 1.51 0 0 0 1 1.41V15h-2v-1.09a1.51 1.51 0 0 0 1-1.41c0-.58-.47-2.5-1.5-2.5S8 11.92 8 12.5a1.51 1.51 0 0 0 1 1.41V15H7.5a.5.5 0 0 0-.5.5v6a.5.5 0 0 0 .5.5h10a.5.5 0 0 0 .5-.5v-6a.5.5 0 0 0-.5-.5Zm-2-4a3.21 3.21 0 0 1 .5 1.5.5.5 0 0 1-1 0 3.21 3.21 0 0 1 .5-1.5Zm-3 0a3.21 3.21 0 0 1 .5 1.5.5.5 0 0 1-1 0 3.21 3.21 0 0 1 .5-1.5Zm-3 0a3.21 3.21 0 0 1 .5 1.5.5.5 0 0 1-1 0 3.21 3.21 0 0 1 .5-1.5Zm7.5 5v1.27a2.53 2.53 0 0 1-1.52.73 2.11 2.11 0 0 1-1.23-.41A3.08 3.08 0 0 0 12.5 17a3.08 3.08 0 0 0-1.75.59 2.09 2.09 0 0 1-1.23.41A2.53 2.53 0 0 1 8 17.27V16Zm-9 5v-2.49a3.21 3.21 0 0 0 1.48.49 2.85 2.85 0 0 0 1.79-.56A2.16 2.16 0 0 1 12.5 18a2.16 2.16 0 0 1 1.23.44 3 3 0 0 0 1.66.56h.13a3.21 3.21 0 0 0 1.48-.49V21Z"/>
        </g>
    </g>
</svg>