<svg width="30px" viewBox="0 0 24 24" fill="none" xmlns="http://www.w3.org/2000/svg">
    <g stroke="#1C274C">
        <path d="M2 16c0-2.83 0-4.24.88-5.12C3.76 10 5.18 10 8 10h8c2.83 0 4.24 0 5.12.88.88.88.88 2.3.88 5.12 0 2.83 0 4.24-.88 5.12-.88.88-2.3.88-5.12.88H8c-2.83 0-4.24 0-5.12-.88C2 20.24 2 18.82 2 16Z" stroke-width="1.5" style="--darkreader-inline-stroke:#566270"/>
        <path d="M6 10V8a6 6 0 0 1 11.81-1.5" stroke-width="1.5" stroke-linecap="round" style="--darkreader-inline-stroke:#566270"/>
        <path d="M8 16h0m4 0h0m4 0h0" stroke-width="2" stroke-linecap="round" stroke-linejoin="round" style="--darkreader-inline-stroke:#566270"/>
    </g>
</svg>