<?xml version="1.0" encoding="UTF-8"?>
<svg xmlns:rdf="http://www.w3.org/1999/02/22-rdf-syntax-ns#" xmlns="http://www.w3.org/2000/svg" xmlns:cc="http://web.resource.org/cc/" xmlns:xlink="http://www.w3.org/1999/xlink" xmlns:dc="http://purl.org/dc/elements/1.1/" xmlns:svg="http://www.w3.org/2000/svg" id="speech2" viewBox="0 0 202.37 166.41">
  <defs id="defs2136">
    <radialGradient id="radialGradient11075" gradientUnits="userSpaceOnUse" cy="802.23" cx="132.24" gradientTransform="matrix(1.809 -.10859 .10241 1.706 316.48 -822.66)" r="94.236">
      <stop id="stop11069" stop-color="#e9fffb" stop-opacity=".91775" offset="0"></stop>
      <stop id="stop11071" stop-color="#72dac5" stop-opacity="0" offset="1"></stop>
    </radialGradient>
  </defs>
  <g id="layer1" transform="translate(-607.72 -504.76)">
    <path id="path8410" stroke-linejoin="round" d="m704.16 507.72c-34.57 0.08-68.24 2.9-78.95 9.08-22.29 12.87-16.25 92.56 0 101.94 3.14 1.82 10.52 3.31 20.55 4.48-0.46 7.96 0.3 19.36 6.65 27.96 14.53 19.65 43.03 16.9 43.03 16.9s-26.16-10.14-33.06-25.29c-2.64-5.79-2.45-12.32-1.23-18.17 45.71 3.24 118.4 1.65 131.43-5.88 18.7-10.79 20.09-90.35 0-101.94-10.14-5.86-49.84-9.18-88.42-9.08z" stroke="#000" stroke-width="5.9085" fill="#72dac5"></path>
    <path id="path10185" d="m701.03 511.73c-24.45 0.93-49.73-0.03-73.07 8.19-10.88 7.19-11.35 21.95-12.81 33.75-1.25 20.06 0.07 41.07 9.35 59.13 5.91 7.24 34.01 7.48 41.15 8.08 40.04 1.83 80.85 2.95 120.31-3.8 8.42-1.64 11.25-10.39 13.19-17.63 5.84-22.33 5.38-46.64-1.25-68.72-2.05-7.29-8.43-12.64-16.09-13.18-25.75-5.6-52.57-5.37-78.91-5.83l-1 0.01h-0.87z" fill="url(#radialGradient11075)"></path>
  </g>
  <metadata></metadata>
</svg>
