<?xml version="1.0" encoding="UTF-8" standalone="no"?>
<!-- Created with Inkscape (http://www.inkscape.org/) -->

<svg
   xmlns:dc="http://purl.org/dc/elements/1.1/"
   xmlns:cc="http://creativecommons.org/ns#"
   xmlns:rdf="http://www.w3.org/1999/02/22-rdf-syntax-ns#"
   xmlns:svg="http://www.w3.org/2000/svg"
   xmlns="http://www.w3.org/2000/svg"
   xmlns:sodipodi="http://sodipodi.sourceforge.net/DTD/sodipodi-0.dtd"
   xmlns:inkscape="http://www.inkscape.org/namespaces/inkscape"
   sodipodi:docname="Comic FX f1 - Copy - Copy (3).svg"
   inkscape:version="0.92.1 r15371"
   id="svg8"
   version="1.1"
   viewBox="0 0 37.47348 27.300919"
   height="27.300919mm"
   width="37.47348mm">
  <defs
     id="defs2" />
  <sodipodi:namedview
     inkscape:window-maximized="1"
     inkscape:window-y="-8"
     inkscape:window-x="-8"
     inkscape:window-height="705"
     inkscape:window-width="1368"
     showgrid="false"
     inkscape:current-layer="layer1"
     inkscape:document-units="mm"
     inkscape:cy="306.46907"
     inkscape:cx="-489.44021"
     inkscape:zoom="0.60728983"
     inkscape:pageshadow="2"
     inkscape:pageopacity="0.0"
     borderopacity="1.0"
     bordercolor="#666666"
     pagecolor="#ffffff"
     id="base" />
  <metadata
     id="metadata5">
    <rdf:RDF>
      <cc:Work
         rdf:about="">
        <dc:format>image/svg+xml</dc:format>
        <dc:type
           rdf:resource="http://purl.org/dc/dcmitype/StillImage" />
        <dc:title />
      </cc:Work>
    </rdf:RDF>
  </metadata>
  <g
     inkscape:label="Layer 1"
     inkscape:groupmode="layer"
     id="layer1"
     transform="translate(-68.701446,-210.94916)">
    <g
       id="g896"
       transform="matrix(0.9399537,0,0,0.94051839,-326.02237,-128.62525)"
       style="stroke-width:0.90859461">
      <ellipse
         ry="12.302515"
         rx="19.693285"
         cy="373.59317"
         cx="439.87332"
         id="path1265"
         style="opacity:1;fill:#ffffff;fill-opacity:1;stroke:#000000;stroke-width:0.48079792;stroke-linecap:butt;stroke-linejoin:miter;stroke-miterlimit:4;stroke-dasharray:none;stroke-opacity:1;paint-order:normal" />
      <path
         inkscape:connector-curvature="0"
         id="path1259"
         d="m 448.99462,387.70415 q 1.54004,0 2.63132,-0.74452 1.09128,-0.74452 1.09128,-1.8358 0,-1.12188 -1.09128,-1.8766 -1.08108,-0.76492 -2.63132,-0.76492 -0.99949,0 -1.846,0.34676 -0.84651,0.34677 -1.35646,0.9587 -0.50994,0.61193 -0.50994,1.33606 0,1.09128 1.10148,1.8358 1.10148,0.74452 2.61092,0.74452 z"
         style="font-style:normal;font-variant:normal;font-weight:normal;font-stretch:normal;font-size:medium;line-height:1;font-family:'Carr Balloons';-inkscape-font-specification:'Carr Balloons';font-variant-ligatures:normal;font-variant-caps:normal;font-variant-numeric:normal;font-feature-settings:normal;text-align:center;writing-mode:lr-tb;text-anchor:middle;fill:#ffffff;fill-opacity:1;stroke:#000000;stroke-width:0.48079795;stroke-linecap:round;stroke-linejoin:miter;stroke-miterlimit:4.0999999;stroke-dasharray:none;stroke-dashoffset:0;stroke-opacity:1;paint-order:fill markers stroke" />
      <path
         inkscape:connector-curvature="0"
         id="path1257"
         d="m 451.66819,388.6375 q 0.96144,0 1.66575,-0.38837 0.7155,-0.40052 0.7155,-0.95882 0,-0.52188 -0.70432,-0.91025 -0.69313,-0.38839 -1.67693,-0.38839 -1.00617,0 -1.6993,0.40052 -0.68195,0.38837 -0.68195,0.89812 0,0.54616 0.69313,0.94667 0.70431,0.40052 1.68812,0.40052 z"
         style="font-style:normal;font-variant:normal;font-weight:normal;font-stretch:normal;font-size:medium;line-height:1;font-family:'Carr Balloons';-inkscape-font-specification:'Carr Balloons';font-variant-ligatures:normal;font-variant-caps:normal;font-variant-numeric:normal;font-feature-settings:normal;text-align:center;writing-mode:lr-tb;text-anchor:middle;fill:#ffffff;fill-opacity:1;stroke:#000000;stroke-width:0.48079795;stroke-linecap:round;stroke-linejoin:miter;stroke-miterlimit:4.0999999;stroke-dasharray:none;stroke-dashoffset:0;stroke-opacity:1;paint-order:fill markers stroke" />
      <path
         inkscape:connector-curvature="0"
         id="path39414"
         d="m 454.14537,389.83738 q 0.51575,0 0.86691,-0.3242 0.35115,-0.33539 0.35115,-0.81611 0,-0.53662 -0.35115,-0.88318 -0.34018,-0.35776 -0.86691,-0.35776 -0.49381,0 -0.83399,0.35776 -0.3292,0.34656 -0.3292,0.88318 0,0.48072 0.34018,0.81611 0.34018,0.3242 0.82301,0.3242 z"
         style="font-style:normal;font-variant:normal;font-weight:normal;font-stretch:normal;font-size:medium;line-height:1;font-family:'Carr Balloons';-inkscape-font-specification:'Carr Balloons';font-variant-ligatures:normal;font-variant-caps:normal;font-variant-numeric:normal;font-feature-settings:normal;text-align:center;writing-mode:lr-tb;text-anchor:middle;fill:#ffffff;fill-opacity:1;stroke:#202020;stroke-width:0.48079795;stroke-linecap:round;stroke-linejoin:miter;stroke-miterlimit:4.0999999;stroke-dasharray:none;stroke-dashoffset:0;stroke-opacity:1;paint-order:fill markers stroke" />
    </g>
    <path
       inkscape:connector-curvature="0"
       id="path5500"
       style="font-style:normal;font-variant:normal;font-weight:normal;font-stretch:normal;font-size:2.82222223px;line-height:13.22916603px;font-family:'Comic Sans MS';-inkscape-font-specification:'Comic Sans MS';text-align:center;letter-spacing:0px;word-spacing:0px;text-anchor:middle;fill:#000000;fill-opacity:1;stroke:none;stroke-width:0.79374993px;stroke-linecap:butt;stroke-linejoin:miter;stroke-opacity:1"
       d="m 77.191591,219.59892 q -0.06201,0.1737 -0.06201,0.50847 0,0.1239 0.0084,0.36795 0.0084,0.2439 0.0084,0.36792 0,0.41343 -0.07443,1.23198 -0.07029,0.81855 -0.07029,1.23198 0,0.31419 0.04548,0.94257 0.04548,0.62838 0.04548,0.94671 0,0.1695 -0.11577,0.2853 -0.11163,0.1158 -0.28113,0.1158 -0.16536,0 -0.28113,-0.1158 -0.11574,-0.1158 -0.11574,-0.2853 0,-0.31833 -0.04548,-0.94671 -0.04548,-0.62838 -0.04548,-0.94257 0,-0.3018 0.0207,-0.61185 -0.706935,0.012 -1.748733,0.2109 l -1.736328,0.339 q 0,0.37206 -0.0744,1.05831 -0.07443,0.68214 -0.07443,1.05834 0,0.1695 -0.11574,0.2853 -0.11163,0.12 -0.28113,0.12 -0.1695,0 -0.28524,-0.12 -0.11163,-0.1158 -0.11163,-0.2853 0,-0.43821 0.07029,-1.30638 0.07443,-0.87231 0.07443,-1.31052 0,-0.2274 -0.0165,-0.68625 -0.0165,-0.45888 -0.0165,-0.69039 0,-0.32661 0.04134,-0.9798 0.04134,-0.65733 0.04134,-0.98391 0,-0.1737 0.11163,-0.2895 0.11577,-0.1158 0.28524,-0.1158 0.1695,0 0.28113,0.1158 0.11574,0.1158 0.11574,0.2895 0,0.33072 -0.04548,0.99219 -0.04134,0.6573 -0.04134,0.98805 l 0.0249,1.04592 1.773537,-0.33486 q 1.062465,-0.1986 1.79007,-0.2067 0.04548,-0.59118 0.04548,-1.78182 0,-0.31419 0.10335,-0.63663 0.13644,-0.44235 0.384471,-0.44235 0.15711,0 0.28113,0.1158 0.12402,0.1116 0.12402,0.2853 0,0.0621 -0.0372,0.1695 z" />
    <path
       inkscape:connector-curvature="0"
       id="path5502"
       style="font-style:normal;font-variant:normal;font-weight:normal;font-stretch:normal;font-size:2.82222223px;line-height:13.22916603px;font-family:'Comic Sans MS';-inkscape-font-specification:'Comic Sans MS';text-align:center;letter-spacing:0px;word-spacing:0px;text-anchor:middle;fill:#000000;fill-opacity:1;stroke:none;stroke-width:0.79374993px;stroke-linecap:butt;stroke-linejoin:miter;stroke-opacity:1"
       d="m 83.496118,226.66701 q -0.338997,0 -0.396876,-0.35967 -0.07443,-0.45477 -0.14883,-1.28157 l -0.14055,-1.28157 q -0.04134,-0.2853 -0.14055,-0.55812 -0.14055,-0.37206 -0.305925,-0.37206 -0.15297,0 -0.570507,0.2604 -0.396876,0.2397 -0.520899,0.38448 -0.0042,0.38862 0.0207,0.77721 l 0.12402,1.10382 q 0.07854,0.65319 0.07854,1.07901 0,0.1818 -0.11574,0.2976 -0.11163,0.12 -0.28938,0.12 -0.17775,0 -0.29352,-0.12 -0.11163,-0.1158 -0.11163,-0.2976 0,-0.50025 -0.10335,-1.47588 -0.09921,-0.9798 -0.09921,-1.48002 0,-0.43821 -0.12402,-0.68214 -0.28938,0.1323 -0.587046,0.42996 l -0.487824,0.5457 q -0.06615,0.0993 -0.21084,0.2604 0,0.2481 -0.04548,0.73173 -0.04548,0.48369 -0.04548,0.7152 0,0.1239 0.0372,0.34725 0.04134,0.2232 0.04134,0.32247 0,0.1695 -0.12816,0.2853 -0.12402,0.1158 -0.29352,0.1158 -0.467157,0 -0.467157,-1.06245 0,-0.2481 0.04548,-0.74001 0.04548,-0.49197 0.04548,-0.74001 0,-0.219 -0.04134,-0.65733 -0.0372,-0.43821 -0.0372,-0.66147 0,-0.93843 0.421677,-0.93843 0.16122,0 0.29352,0.1407 0.13641,0.1407 0.13641,0.30594 0,0.0786 -0.0207,0.2439 -0.0207,0.1653 -0.0207,0.2523 l 0.0084,0.4341 q 0.21498,-0.44235 0.63252,-0.79791 0.417546,-0.35967 0.711069,-0.35967 0.649056,0 0.892968,0.64494 0.22737,-0.3018 0.541569,-0.45063 0.314193,-0.153 0.719334,-0.153 0.690399,0 0.942579,0.74412 0.04962,0.1488 0.1695,1.16169 0.11577,0.71106 0.29766,2.36886 0.0123,0.1653 -0.11163,0.2811 -0.12402,0.1158 -0.301788,0.1158 z" />
    <path
       inkscape:connector-curvature="0"
       id="path5504"
       style="font-style:normal;font-variant:normal;font-weight:normal;font-stretch:normal;font-size:2.82222223px;line-height:13.22916603px;font-family:'Comic Sans MS';-inkscape-font-specification:'Comic Sans MS';text-align:center;letter-spacing:0px;word-spacing:0px;text-anchor:middle;fill:#000000;fill-opacity:1;stroke:none;stroke-width:0.79374993px;stroke-linecap:butt;stroke-linejoin:miter;stroke-opacity:1"
       d="m 90.077629,225.76701 q -0.338997,0 -0.396876,-0.35967 -0.07443,-0.45477 -0.14883,-1.28157 l -0.14055,-1.28157 q -0.04134,-0.2853 -0.14055,-0.55812 -0.14055,-0.37206 -0.305925,-0.37206 -0.15297,0 -0.570507,0.2604 -0.396876,0.2397 -0.520899,0.38448 -0.0042,0.38862 0.0207,0.77721 l 0.12402,1.10382 q 0.07854,0.65319 0.07854,1.07901 0,0.1818 -0.11574,0.2976 -0.11163,0.12 -0.28938,0.12 -0.17778,0 -0.29352,-0.12 -0.11163,-0.1158 -0.11163,-0.2976 0,-0.50025 -0.10335,-1.47588 -0.09921,-0.9798 -0.09921,-1.48002 0,-0.43821 -0.12402,-0.68214 -0.28938,0.1323 -0.587046,0.42996 l -0.487824,0.5457 q -0.06615,0.0993 -0.21084,0.2604 0,0.2481 -0.04548,0.73173 -0.04548,0.48369 -0.04548,0.7152 0,0.1239 0.0372,0.34725 0.04134,0.2232 0.04134,0.32247 0,0.1695 -0.12816,0.2853 -0.12402,0.1158 -0.29352,0.1158 -0.467154,0 -0.467154,-1.06245 0,-0.2481 0.04548,-0.74001 0.04548,-0.49197 0.04548,-0.74001 0,-0.219 -0.04134,-0.65733 -0.0372,-0.43821 -0.0372,-0.66147 0,-0.93843 0.42168,-0.93843 0.16122,0 0.29352,0.1404 0.13644,0.1407 0.13644,0.30594 0,0.0786 -0.0207,0.2439 -0.0207,0.1653 -0.0207,0.2523 l 0.0084,0.4341 q 0.21498,-0.44235 0.63252,-0.79791 0.417546,-0.35967 0.711069,-0.35967 0.649056,0 0.892968,0.64494 0.22737,-0.3018 0.541569,-0.45063 0.314193,-0.153 0.719337,-0.153 0.690396,0 0.942576,0.74412 0.04962,0.1488 0.1695,1.16169 0.11574,0.71106 0.29766,2.36886 0.0123,0.1653 -0.11163,0.2811 -0.12402,0.1158 -0.301791,0.1158 z" />
    <path
       inkscape:connector-curvature="0"
       id="path5506"
       style="font-style:normal;font-variant:normal;font-weight:normal;font-stretch:normal;font-size:2.82222223px;line-height:13.22916603px;font-family:'Comic Sans MS';-inkscape-font-specification:'Comic Sans MS';text-align:center;letter-spacing:0px;word-spacing:0px;text-anchor:middle;fill:#000000;fill-opacity:1;stroke:none;stroke-width:0.79374993px;stroke-linecap:butt;stroke-linejoin:miter;stroke-opacity:1"
       d="m 96.65914,226.66701 q -0.339,0 -0.396876,-0.35967 -0.07443,-0.45477 -0.14883,-1.28157 l -0.14055,-1.28157 q -0.04134,-0.2853 -0.14055,-0.55812 -0.14055,-0.37206 -0.305925,-0.37206 -0.15297,0 -0.570507,0.2604 -0.396876,0.2397 -0.520899,0.38448 -0.0042,0.38862 0.0207,0.77721 l 0.12402,1.10382 q 0.07854,0.65319 0.07854,1.07901 0,0.1818 -0.11574,0.2976 -0.11163,0.12 -0.28938,0.12 -0.17775,0 -0.29352,-0.12 -0.11163,-0.1158 -0.11163,-0.2976 0,-0.50025 -0.10335,-1.47588 -0.09921,-0.9798 -0.09921,-1.48002 0,-0.43821 -0.12402,-0.68214 -0.28938,0.1323 -0.587046,0.42996 l -0.487824,0.5457 q -0.06615,0.0993 -0.21084,0.2604 0,0.2481 -0.04548,0.73173 -0.04548,0.48369 -0.04548,0.7152 0,0.1239 0.0372,0.34725 0.04134,0.2232 0.04134,0.32247 0,0.1695 -0.12816,0.2853 -0.12402,0.1158 -0.29352,0.1158 -0.467157,0 -0.467157,-1.06245 0,-0.2481 0.04548,-0.74001 0.04548,-0.49197 0.04548,-0.74001 0,-0.219 -0.04134,-0.65733 -0.0372,-0.43821 -0.0372,-0.66147 0,-0.93843 0.42168,-0.93843 0.16122,0 0.29352,0.1407 0.13644,0.1407 0.13644,0.30594 0,0.0786 -0.0207,0.2439 -0.0207,0.1653 -0.0207,0.2523 l 0.0084,0.4341 q 0.21498,-0.44235 0.63252,-0.79791 0.417546,-0.35967 0.711066,-0.35967 0.649056,0 0.892971,0.64494 0.22737,-0.3018 0.541569,-0.45063 0.314193,-0.153 0.719334,-0.153 0.690399,0 0.942579,0.74412 0.04962,0.1488 0.1695,1.16169 0.11574,0.71106 0.29766,2.36886 0.0123,0.1653 -0.11163,0.2811 -0.12402,0.1158 -0.301788,0.1158 z" />
    <path
       inkscape:connector-curvature="0"
       id="path5508"
       style="font-style:normal;font-variant:normal;font-weight:normal;font-stretch:normal;font-size:2.82222223px;line-height:13.22916603px;font-family:'Comic Sans MS';-inkscape-font-specification:'Comic Sans MS';text-align:center;letter-spacing:0px;word-spacing:0px;text-anchor:middle;fill:#000000;fill-opacity:1;stroke:none;stroke-width:0.79374993px;stroke-linecap:butt;stroke-linejoin:miter;stroke-opacity:1"
       d="m 98.519491,225.80835 q -0.21498,0 -0.363804,-0.1488 -0.14883,-0.1488 -0.14883,-0.36381 0,-0.2109 0.14883,-0.35967 0.14883,-0.153 0.363804,-0.153 0.21084,0 0.359667,0.153 0.15297,0.1488 0.15297,0.35967 0,0.2151 -0.15297,0.36381 -0.14883,0.1488 -0.359667,0.1488 z" />
    <path
       inkscape:connector-curvature="0"
       id="path5510"
       style="font-style:normal;font-variant:normal;font-weight:normal;font-stretch:normal;font-size:2.82222223px;line-height:13.22916603px;font-family:'Comic Sans MS';-inkscape-font-specification:'Comic Sans MS';text-align:center;letter-spacing:0px;word-spacing:0px;text-anchor:middle;fill:#000000;fill-opacity:1;stroke:none;stroke-width:0.79374993px;stroke-linecap:butt;stroke-linejoin:miter;stroke-opacity:1"
       d="m 100.63616,225.80835 q -0.21498,0 -0.3638,-0.1488 -0.14883,-0.1488 -0.14883,-0.36381 0,-0.2109 0.14883,-0.35967 0.14883,-0.153 0.3638,-0.153 0.21084,0 0.35967,0.153 0.15297,0.1488 0.15297,0.35967 0,0.2151 -0.15297,0.36381 -0.14883,0.1488 -0.35967,0.1488 z" />
    <path
       inkscape:connector-curvature="0"
       id="path5512"
       style="font-style:normal;font-variant:normal;font-weight:normal;font-stretch:normal;font-size:2.82222223px;line-height:13.22916603px;font-family:'Comic Sans MS';-inkscape-font-specification:'Comic Sans MS';text-align:center;letter-spacing:0px;word-spacing:0px;text-anchor:middle;fill:#000000;fill-opacity:1;stroke:none;stroke-width:0.79374993px;stroke-linecap:butt;stroke-linejoin:miter;stroke-opacity:1"
       d="m 102.75282,225.80835 q -0.21498,0 -0.3638,-0.1488 -0.14883,-0.1488 -0.14883,-0.36381 0,-0.2109 0.14883,-0.35967 0.14883,-0.153 0.3638,-0.153 0.21084,0 0.35967,0.153 0.15297,0.1488 0.15297,0.35967 0,0.2151 -0.15297,0.36381 -0.14883,0.1488 -0.35967,0.1488 z" />
  </g>
</svg>
